<mxfile host="Electron" modified="2025-04-29T23:52:05.620Z" agent="Mozilla/5.0 (Windows NT 10.0; Win64; x64) AppleWebKit/537.36 (KHTML, like Gecko) draw.io/24.2.5 Chrome/120.0.6099.109 Electron/28.1.0 Safari/537.36" etag="Fac5OgWPUq0ImnpN1Msi" version="24.2.5" type="device">
  <diagram name="Page-1" id="l_sa3lmFlstI7wUaDaNd">
    <mxGraphModel dx="2427" dy="447" grid="1" gridSize="10" guides="1" tooltips="1" connect="1" arrows="1" fold="1" page="1" pageScale="1" pageWidth="850" pageHeight="1100" math="0" shadow="0">
      <root>
        <mxCell id="0" />
        <mxCell id="1" parent="0" />
        <mxCell id="HsjdqAM8q-zUFMkx7ou6-1" value="specializes" style="edgeStyle=orthogonalEdgeStyle;rounded=0;orthogonalLoop=1;jettySize=auto;html=1;exitX=0.5;exitY=0;exitDx=0;exitDy=0;entryX=0.25;entryY=1;entryDx=0;entryDy=0;endArrow=block;endFill=0;" edge="1" parent="1" source="HsjdqAM8q-zUFMkx7ou6-2" target="HsjdqAM8q-zUFMkx7ou6-5">
          <mxGeometry relative="1" as="geometry" />
        </mxCell>
        <mxCell id="HsjdqAM8q-zUFMkx7ou6-2" value="&lt;b&gt;Function:&lt;/b&gt;&lt;br&gt;Abstract functional behavior embodied by the system." style="rounded=0;whiteSpace=wrap;html=1;" vertex="1" parent="1">
          <mxGeometry x="-1446.5" y="130.5" width="120" height="59.5" as="geometry" />
        </mxCell>
        <mxCell id="HsjdqAM8q-zUFMkx7ou6-3" value="specializes" style="edgeStyle=orthogonalEdgeStyle;rounded=0;orthogonalLoop=1;jettySize=auto;html=1;exitX=0.5;exitY=0;exitDx=0;exitDy=0;endArrow=block;endFill=0;" edge="1" parent="1" source="HsjdqAM8q-zUFMkx7ou6-4" target="HsjdqAM8q-zUFMkx7ou6-5">
          <mxGeometry x="0.1304" relative="1" as="geometry">
            <mxPoint as="offset" />
          </mxGeometry>
        </mxCell>
        <mxCell id="HsjdqAM8q-zUFMkx7ou6-4" value="&lt;b&gt;Action: &lt;br&gt;&lt;/b&gt;Logical behavior or task performed by the system." style="rounded=1;whiteSpace=wrap;html=1;" vertex="1" parent="1">
          <mxGeometry x="-1316.5" y="129.5" width="120" height="59.5" as="geometry" />
        </mxCell>
        <mxCell id="HsjdqAM8q-zUFMkx7ou6-5" value="&lt;b&gt;BehavioralBlock:&lt;/b&gt;&lt;br&gt;Behavioral element or phenomena." style="shape=process;whiteSpace=wrap;html=1;backgroundOutline=1;" vertex="1" parent="1">
          <mxGeometry x="-1381.5" y="60" width="250" height="35.5" as="geometry" />
        </mxCell>
        <mxCell id="HsjdqAM8q-zUFMkx7ou6-6" value="specializes" style="edgeStyle=orthogonalEdgeStyle;rounded=0;orthogonalLoop=1;jettySize=auto;html=1;exitX=0.5;exitY=0;exitDx=0;exitDy=0;entryX=0.75;entryY=1;entryDx=0;entryDy=0;endArrow=block;endFill=0;" edge="1" parent="1" source="HsjdqAM8q-zUFMkx7ou6-7" target="HsjdqAM8q-zUFMkx7ou6-5">
          <mxGeometry relative="1" as="geometry" />
        </mxCell>
        <mxCell id="HsjdqAM8q-zUFMkx7ou6-7" value="&lt;b&gt;Component:&lt;/b&gt;&lt;br&gt;Physical hardware embodying function or&amp;nbsp;action behaviors." style="shape=trapezoid;perimeter=trapezoidPerimeter;whiteSpace=wrap;html=1;fixedSize=1;size=10;" vertex="1" parent="1">
          <mxGeometry x="-1186.5" y="130.5" width="120" height="59.5" as="geometry" />
        </mxCell>
        <mxCell id="HsjdqAM8q-zUFMkx7ou6-8" value="&lt;b&gt;Types of Blocks&lt;/b&gt;" style="text;html=1;strokeColor=none;fillColor=none;align=center;verticalAlign=middle;whiteSpace=wrap;rounded=0;" vertex="1" parent="1">
          <mxGeometry x="-1302.5" y="10" width="95" height="30" as="geometry" />
        </mxCell>
      </root>
    </mxGraphModel>
  </diagram>
</mxfile>
